<svg preserveAspectRatio="none" width="3896" height="447" viewBox="0 0 3896 447" fill="none" xmlns="http://www.w3.org/2000/svg">
<g opacity="0.4" filter="url(#filter0_d)">
<path d="M24 48.9622L24 441H1952V48.9622C1873.53 45.9983 1832.23 46.7895 1805.62 46.7894H1805.61C1778.99 46.7893 1605.05 40.1454 1591.74 42.5081C1578.43 44.8708 1456.08 68.0643 1440.29 76.7587C1420.56 87.6266 1274.16 88.6146 1222.3 99.4826C1170.44 110.351 1060.75 104.423 1019.9 102.776C982.767 101.279 843.206 70.9262 782.289 71.3645C771.786 71.4401 761.284 72.1457 750.781 72.0684C689.737 71.6193 620.985 83.3426 568.305 87.1585C509.888 91.3899 428.974 88.793 396.235 87.632C386.729 87.295 377.371 86.3222 368.088 84.2481C267.977 61.8794 24 48.9622 24 48.9622Z" fill="#D0D0D0"/>
<path d="M1952 48.9622V441H3871.75V48.9622C3793.28 45.9983 3760.23 46.7895 3733.62 46.7894H3733.61C3706.99 46.7893 3533.05 40.1454 3519.74 42.5081C3506.43 44.8708 3384.08 68.0643 3368.29 76.7587C3348.56 87.6266 3202.16 88.6146 3150.3 99.4826C3098.44 110.351 2988.75 104.423 2947.9 102.776C2910.77 101.279 2771.21 70.9262 2710.29 71.3645C2699.79 71.4401 2689.28 72.1457 2678.78 72.0684C2617.74 71.6193 2548.98 83.3426 2496.3 87.1585C2437.89 91.3899 2356.97 88.793 2324.23 87.632C2314.73 87.295 2305.37 86.3222 2296.09 84.2481C2195.98 61.8794 1952 48.9622 1952 48.9622Z" fill="#D0D0D0"/>
</g>
<defs>
<filter id="filter0_d" x="0" y="0" width="3895.75" height="447" filterUnits="userSpaceOnUse" color-interpolation-filters="sRGB">
<feFlood flood-opacity="0" result="BackgroundImageFix"/>
<feColorMatrix in="SourceAlpha" type="matrix" values="0 0 0 0 0 0 0 0 0 0 0 0 0 0 0 0 0 0 127 0"/>
<feOffset dy="-18"/>
<feGaussianBlur stdDeviation="12"/>
<feColorMatrix type="matrix" values="0 0 0 0 0.815686 0 0 0 0 0.815686 0 0 0 0 0.815686 0 0 0 1 0"/>
<feBlend mode="normal" in2="BackgroundImageFix" result="effect1_dropShadow"/>
<feBlend mode="normal" in="SourceGraphic" in2="effect1_dropShadow" result="shape"/>
</filter>
</defs>
</svg>
