<svg preserveAspectRatio="none" width="3840" height="403" viewBox="0 0 3840 403" fill="none" xmlns="http://www.w3.org/2000/svg">
<path d="M0 402.604H1920H3840V29.0577C3782.09 53.3496 3663.49 68.3737 3611.83 32.6606C3572.79 5.67157 3524.84 -5.1954 3477.98 2.32825L3359.24 21.3925C3327.61 26.4715 3296.96 36.4552 3268.4 50.9833L3225.75 72.6856C3156.24 108.049 3074.76 111.317 3002.64 81.6339C2955.3 62.1496 2903.37 56.6583 2853 65.812L2783.71 78.4053C2741.7 86.0408 2698.55 84.8567 2657.02 74.9281L2602.43 61.8765C2544.26 47.9721 2483.13 53.8186 2428.66 78.4943C2358.59 110.235 2278.29 110.503 2208.01 79.232L2144.2 50.8383C2112.48 36.724 2076.95 33.6168 2043.26 42.0105C2017.52 48.4254 1990.56 48.1539 1964.94 41.2217C1935.82 33.3382 1905.01 36.0694 1875.64 42.9959C1814.31 57.4597 1732.42 60.7166 1691.83 32.6606C1652.79 5.67157 1604.84 -5.1954 1557.98 2.32825L1439.24 21.3925C1407.61 26.4715 1376.96 36.4552 1348.4 50.9833L1305.75 72.6856C1236.24 108.049 1154.76 111.317 1082.64 81.6339C1035.3 62.1496 983.368 56.6583 933.002 65.812L863.709 78.4053C821.695 86.0408 778.553 84.8567 737.022 74.9281L682.427 61.8765C624.264 47.9721 563.129 53.8186 508.656 78.4943C438.588 110.235 358.292 110.503 288.013 79.232L224.2 50.8383C192.479 36.724 156.951 33.6168 123.262 42.0105C97.515 48.4254 70.5556 48.1539 44.9429 41.2217L0 29.0577V402.604Z" fill="#C4C4C4" fill-opacity="0.8"/>
</svg>
