<svg preserveAspectRatio="none" width="3840" height="405" viewBox="0 0 3840 405" fill="none" xmlns="http://www.w3.org/2000/svg">
<path d="M0 404.604H1920H3840V34.3447C3782.09 58.6366 3663.49 73.6607 3611.83 37.9476C3587.29 20.9775 3562.78 68.3697 3536.32 107.765C3510.83 145.71 3464.24 147.638 3420.36 134.821L3342.95 112.208C3267.66 90.2168 3181.37 96.8372 3106.56 73.2991C3091.64 68.6064 3076.54 63.0254 3061.64 57.0439C2988.59 27.7086 2908.2 24.875 2835.7 55.5488C2777.76 80.063 2714.25 82.6302 2657.47 55.5283C2610.68 33.1924 2558.64 8.82008 2520.74 4.32822C2498.41 1.68165 2478.4 14.4497 2460.42 27.9528C2371.06 95.0632 2252.36 107.801 2146.56 71.8046C2099.13 55.6661 2056.94 43.8908 2043.26 47.2975C2017.52 53.7124 1990.56 53.4409 1964.94 46.5087C1935.82 38.6252 1905 41.3965 1875.53 47.9176C1814.22 61.4897 1732.39 62.7004 1691.83 34.6604C1667.29 17.6903 1642.78 65.0825 1616.32 104.478C1590.83 142.423 1544.24 144.35 1500.36 131.534L1422.95 108.921C1347.66 86.9296 1261.37 93.55 1186.56 70.0119C1171.64 65.3192 1156.54 59.7382 1141.64 53.7568C1068.59 24.4215 988.204 21.5879 915.701 52.2616C857.757 76.7758 794.253 79.343 737.474 52.2411C690.68 29.9052 638.642 5.53291 600.744 1.04105C578.414 -1.60552 558.4 11.1626 540.419 24.6657C451.058 91.776 332.363 104.514 226.563 68.5174C179.131 52.379 136.936 40.6036 123.262 44.0104C97.515 50.4253 70.5556 50.1537 44.9429 43.2215L0 34.34V404.604Z" fill="#C4C4C4" fill-opacity="0.6"/>
</svg>
